<svg width="48" height="48" viewBox="0 0 48 48" fill="none" xmlns="http://www.w3.org/2000/svg">
<path d="M24.0432 0.179993C10.8147 0.179993 0.0876617 11.0879 0.0876617 24.5445C0.0876617 35.3096 6.95166 44.4426 16.4699 47.6644C17.6672 47.8899 18.1067 47.1358 18.1067 46.4923C18.1067 45.9113 18.0845 43.992 18.0742 41.956C11.4097 43.4299 10.0034 39.0813 10.0034 39.0813C8.91371 36.265 7.3436 35.5162 7.3436 35.5162C5.17011 34.004 7.50743 34.035 7.50743 34.035C9.91299 34.2065 11.1796 36.5459 11.1796 36.5459C13.3162 40.2707 16.7837 39.1939 18.1507 38.5713C18.3657 36.9969 18.9866 35.9213 19.6717 35.3132C14.3508 34.6971 8.75741 32.608 8.75741 23.272C8.75741 20.6119 9.69322 18.4384 11.2256 16.7321C10.9769 16.118 10.157 13.6403 11.4577 10.2842C11.4577 10.2842 13.4693 9.62934 18.0472 12.7817C19.9581 12.2418 22.0074 11.9711 24.0432 11.9618C26.0791 11.9711 28.13 12.2418 30.0444 12.7817C34.6167 9.62934 36.6256 10.2842 36.6256 10.2842C37.9295 13.6403 37.1092 16.118 36.8604 16.7321C38.3964 18.4384 39.3259 20.6119 39.3259 23.272C39.3259 32.6301 33.7218 34.6907 28.3874 35.2939C29.2467 36.05 30.0123 37.5328 30.0123 39.8059C30.0123 43.0656 29.9845 45.6894 29.9845 46.4923C29.9845 47.1407 30.4157 47.9004 31.63 47.6611C41.1431 44.4358 47.9984 35.306 47.9984 24.5445C47.9984 11.0879 37.273 0.179993 24.0432 0.179993Z" fill="black"/>
<path d="M9.16085 35.1621C9.10809 35.2835 8.92085 35.3195 8.75027 35.2363C8.57652 35.1569 8.47893 34.9918 8.53526 34.8704C8.58683 34.7457 8.77447 34.7114 8.94782 34.7941C9.12197 34.874 9.22115 35.0407 9.16085 35.1621Z" fill="black"/>
<path d="M10.1312 36.2626C10.0169 36.3704 9.79358 36.3203 9.64205 36.1501C9.48535 35.9802 9.456 35.753 9.57183 35.6437C9.68965 35.536 9.90625 35.5864 10.0633 35.7563C10.22 35.9281 10.2506 36.1537 10.1312 36.2626Z" fill="black"/>
<path d="M11.0757 37.667C10.9289 37.7708 10.6889 37.6735 10.5406 37.4566C10.3938 37.2397 10.3938 36.9796 10.5438 36.8754C10.6925 36.7712 10.9289 36.8649 11.0793 37.0802C11.2257 37.3003 11.2257 37.5608 11.0757 37.667Z" fill="black"/>
<path d="M12.3697 39.0226C12.2384 39.17 11.9587 39.1304 11.754 38.9293C11.5445 38.7326 11.4862 38.4535 11.6179 38.3061C11.7508 38.1583 12.0321 38.1999 12.2384 38.3994C12.4462 38.5957 12.5097 38.8768 12.3697 39.0226Z" fill="black"/>
<path d="M14.1548 39.8088C14.0969 39.9997 13.8276 40.0864 13.5562 40.0053C13.2853 39.9218 13.108 39.6983 13.1627 39.5054C13.219 39.3134 13.4896 39.223 13.7629 39.3097C14.0334 39.3929 14.2112 39.6148 14.1548 39.8088Z" fill="black"/>
<path d="M16.1153 39.9549C16.122 40.1558 15.8919 40.3225 15.6071 40.3257C15.3207 40.3326 15.089 40.17 15.0859 39.9723C15.0859 39.7693 15.3108 39.6043 15.5972 39.5994C15.882 39.5938 16.1153 39.7552 16.1153 39.9549Z" fill="black"/>
<path d="M17.9397 39.639C17.9738 39.8351 17.7759 40.0364 17.493 40.0897C17.2149 40.1417 16.9575 40.0207 16.9222 39.8262C16.8877 39.6253 17.0892 39.4239 17.3669 39.3719C17.6501 39.3219 17.9036 39.4397 17.9397 39.639Z" fill="black"/>
</svg>
