<svg width="48" height="48" viewBox="0 0 48 48" fill="none" xmlns="http://www.w3.org/2000/svg">
<path fill-rule="evenodd" clip-rule="evenodd" d="M24 0C10.7452 0 0 10.7452 0 24C0 37.2548 10.7452 48 24 48C37.2548 48 48 37.2548 48 24C48 10.7452 37.2548 0 24 0ZM11.5216 19.8778H16.9605V36.2195H11.5216V19.8778ZM17.3187 14.8227C17.2834 13.2204 16.1376 12 14.277 12C12.4164 12 11.2 13.2204 11.2 14.8227C11.2 16.3918 12.3804 17.6473 14.2064 17.6473H14.2412C16.1376 17.6473 17.3187 16.3918 17.3187 14.8227ZM30.3131 19.4939C33.8922 19.4939 36.5754 21.8301 36.5754 26.8496L36.5751 36.2194H31.1364V27.4766C31.1364 25.2806 30.3494 23.7821 28.3805 23.7821C26.8779 23.7821 25.9829 24.7923 25.5898 25.768C25.446 26.1177 25.4107 26.6049 25.4107 27.0933V36.2198H19.9711C19.9711 36.2198 20.0428 21.4115 19.9711 19.8781H25.4107V22.1928C26.1325 21.0801 27.4254 19.4939 30.3131 19.4939Z" fill="black"/>
</svg>
