<svg width="86" height="86" viewBox="0 0 86 86" fill="none" xmlns="http://www.w3.org/2000/svg">
<circle cx="43" cy="43" r="42.75" fill="white" stroke="black" stroke-width="0.5"/>
<circle cx="43" cy="43" r="40.3125" fill="#292728"/>
<path d="M32.6867 24.3554L30.5367 28.2859L28.8906 30.8726L27.3117 33.2242L25.4976 35.6765L23.8179 37.5242L22.0375 39.2039L25.9679 42.0929L28.1179 40.0773L30.2344 37.7594L32.1492 35.3742L33.7281 33.0562L35.1726 30.6711L36.214 28.7898L37.1883 26.8414L38.2969 24.2547L39.3383 26.8414L40.3461 28.8906L41.1859 30.4023L42.664 32.7875L44.2765 35.1054L46.3594 37.7594L48.4758 40.0773L50.6929 42.1265L54.5226 39.1367L52.4062 37.0875L50.7937 35.2734L49.114 33.0898L47.5351 30.7047L45.7883 27.8828L43.907 24.4226L42.2273 20.9625L40.9844 17.9726L39.6406 14.7812L38.9015 12.9L38.2969 11.2875L37.625 12.9672L36.9531 14.7812L35.6094 18.0062L34.2992 20.9625L32.6867 24.3554Z" fill="#FFFDF9"/>
<path d="M40.682 37.0873L37.2219 40.5979L38.0953 41.6729L38.868 42.5967L39.8086 43.8061L41.1523 45.5865L42.2945 47.2998L43.5375 49.2482L44.6461 51.2639L45.4859 52.8428L46.3258 54.5561L46.9976 56.0678L47.7703 57.7811L47.0648 59.5951L46.2922 61.3084L45.4523 63.2568L44.8141 64.735L44.2094 66.3475L43.6719 67.792L43.168 69.2701L42.6976 70.7818L42.2609 72.26L41.8914 73.6037L47.1992 74.8803L47.5519 73.2678L47.9215 71.7225L48.3582 70.1771L48.8453 68.6318L49.4164 67.0193L49.9875 65.474L50.609 63.9287L51.2305 62.4674L51.9863 60.5861L52.9941 58.3689L53.75 56.8068L54.6066 55.06L55.4801 53.3467L56.3031 51.7678L57.143 50.2225L58.0836 48.5596L59.0746 46.8799L60.0152 45.4186L60.9055 44.1084L61.7621 42.9158L62.4844 41.992L63.2906 41.085L64.0297 40.3123L60.6031 37.0537L59.8976 37.8264L59.0242 38.8006L58.1508 39.842L57.4117 40.749L56.5047 41.9584L55.6984 43.1678L54.9594 44.3771L54.0523 45.8553L53.0781 47.5686L52.0031 49.4834L51.3648 50.76L50.6258 52.3053L49.9875 50.7936L49.4836 49.6178L48.3414 47.367L47.1992 45.4857L46.3258 44.1588L45.5195 42.9326L44.3941 41.4209L43.3695 40.1107L42.4961 39.0693L41.5219 37.9943L40.682 37.0873Z" fill="#FFFDF9"/>
</svg>
